<svg width="516" height="145" viewBox="0 0 516 145" fill="none" xmlns="http://www.w3.org/2000/svg">
<path d="M5.75284 97V87.9801L32.4574 54.919V54.5284H6.67614V42.4545H50.6747V52.2912L25.6037 84.5355V84.9261H51.598V97H5.75284ZM72.5053 117.455C70.5877 117.455 68.7885 117.301 67.1076 116.993C65.4504 116.709 64.0773 116.342 62.9883 115.892L66.3974 104.599C68.1729 105.144 69.771 105.44 71.1914 105.487C72.6355 105.535 73.8784 105.203 74.9201 104.493C75.9854 103.783 76.8496 102.575 77.5124 100.871L78.4002 98.5625L58.8335 42.4545H74.7425L86.0352 82.5114H86.6033L98.0025 42.4545H114.018L92.8178 102.895C91.7998 105.83 90.4149 108.387 88.663 110.565C86.9348 112.767 84.7449 114.46 82.0934 115.643C79.4419 116.851 76.2459 117.455 72.5053 117.455ZM136.887 24.2727V97H121.76V24.2727H136.887ZM173.651 98.0653C168.134 98.0653 163.364 96.8935 159.339 94.5497C155.339 92.1823 152.249 88.8916 150.071 84.6776C147.893 80.4399 146.804 75.5275 146.804 69.9403C146.804 64.3059 147.893 59.3816 150.071 55.1676C152.249 50.9299 155.339 47.6392 159.339 45.2955C163.364 42.928 168.134 41.7443 173.651 41.7443C179.167 41.7443 183.925 42.928 187.926 45.2955C191.951 47.6392 195.052 50.9299 197.23 55.1676C199.408 59.3816 200.497 64.3059 200.497 69.9403C200.497 75.5275 199.408 80.4399 197.23 84.6776C195.052 88.8916 191.951 92.1823 187.926 94.5497C183.925 96.8935 179.167 98.0653 173.651 98.0653ZM173.722 86.3466C176.231 86.3466 178.326 85.6364 180.007 84.2159C181.688 82.7718 182.955 80.8068 183.807 78.321C184.683 75.8352 185.121 73.0062 185.121 69.8338C185.121 66.6615 184.683 63.8324 183.807 61.3466C182.955 58.8608 181.688 56.8958 180.007 55.4517C178.326 54.0076 176.231 53.2855 173.722 53.2855C171.188 53.2855 169.058 54.0076 167.33 55.4517C165.625 56.8958 164.335 58.8608 163.459 61.3466C162.607 63.8324 162.18 66.6615 162.18 69.8338C162.18 73.0062 162.607 75.8352 163.459 78.321C164.335 80.8068 165.625 82.7718 167.33 84.2159C169.058 85.6364 171.188 86.3466 173.722 86.3466Z" fill="#0A0A0A"/>
<path d="M226 86C234.284 86 241 79.2843 241 71C241 62.7157 234.284 56 226 56C217.716 56 211 62.7157 211 71C211 79.2843 217.716 86 226 86Z" fill="url(#paint0_linear_2001_13)"/>
<path d="M297.42 58.0085L283.571 58.8608C283.334 57.6771 282.825 56.6117 282.044 55.6648C281.263 54.6941 280.233 53.9247 278.955 53.3565C277.7 52.7647 276.196 52.4688 274.445 52.4688C272.101 52.4688 270.124 52.9659 268.514 53.9602C266.904 54.9309 266.099 56.233 266.099 57.8665C266.099 59.1686 266.62 60.2694 267.662 61.169C268.704 62.0687 270.491 62.7907 273.024 63.3352L282.896 65.3239C288.199 66.4129 292.153 68.1648 294.757 70.5795C297.361 72.9943 298.663 76.1667 298.663 80.0966C298.663 83.6714 297.61 86.8082 295.503 89.5071C293.42 92.206 290.555 94.313 286.909 95.8281C283.287 97.3196 279.108 98.0653 274.374 98.0653C267.153 98.0653 261.4 96.562 257.115 93.5554C252.854 90.5251 250.356 86.4058 249.622 81.1974L264.501 80.4162C264.951 82.6179 266.04 84.2988 267.768 85.4588C269.497 86.5952 271.71 87.1634 274.409 87.1634C277.061 87.1634 279.191 86.6544 280.801 85.6364C282.435 84.5947 283.263 83.2571 283.287 81.6236C283.263 80.2505 282.683 79.1259 281.547 78.25C280.411 77.3504 278.659 76.6638 276.291 76.1903L266.845 74.3082C261.518 73.2429 257.553 71.3963 254.949 68.7685C252.368 66.1406 251.078 62.7907 251.078 58.7188C251.078 55.215 252.025 52.1965 253.919 49.6634C255.837 47.1302 258.524 45.1771 261.98 43.804C265.46 42.4309 269.532 41.7443 274.196 41.7443C281.085 41.7443 286.507 43.2003 290.46 46.1122C294.438 49.0241 296.758 52.9896 297.42 58.0085ZM337.202 42.4545V53.8182H304.354V42.4545H337.202ZM311.811 29.3864H326.939V80.2386C326.939 81.6354 327.152 82.7244 327.578 83.5057C328.005 84.2633 328.596 84.7959 329.354 85.1037C330.135 85.4115 331.035 85.5653 332.053 85.5653C332.763 85.5653 333.473 85.5062 334.184 85.3878C334.894 85.2457 335.438 85.1392 335.817 85.0682L338.196 96.3253C337.439 96.562 336.373 96.8343 335 97.142C333.627 97.4735 331.958 97.6747 329.993 97.7457C326.347 97.8878 323.151 97.4025 320.405 96.2898C317.683 95.1771 315.564 93.4489 314.049 91.1051C312.533 88.7614 311.788 85.8021 311.811 82.2273V29.3864ZM362.61 98.0298C359.13 98.0298 356.029 97.4261 353.306 96.2188C350.584 94.9877 348.43 93.1766 346.843 90.7855C345.281 88.3707 344.5 85.3641 344.5 81.7656C344.5 78.7353 345.056 76.1903 346.169 74.1307C347.281 72.071 348.797 70.4138 350.714 69.1591C352.632 67.9044 354.81 66.9574 357.248 66.3182C359.71 65.679 362.291 65.2292 364.99 64.9688C368.162 64.6373 370.719 64.3295 372.66 64.0455C374.601 63.7377 376.01 63.2879 376.886 62.696C377.762 62.1042 378.2 61.2282 378.2 60.0682V59.8551C378.2 57.6061 377.49 55.866 376.069 54.6349C374.672 53.4039 372.684 52.7884 370.103 52.7884C367.381 52.7884 365.215 53.392 363.605 54.5994C361.995 55.7831 360.93 57.2746 360.409 59.0739L346.417 57.9375C347.127 54.6231 348.524 51.7585 350.608 49.3438C352.691 46.9053 355.378 45.035 358.669 43.733C361.983 42.4072 365.818 41.7443 370.174 41.7443C373.205 41.7443 376.105 42.0994 378.875 42.8097C381.668 43.5199 384.142 44.6207 386.297 46.1122C388.475 47.6037 390.191 49.5213 391.446 51.8651C392.7 54.1851 393.328 56.9669 393.328 60.2102V97H378.981V89.4361H378.555C377.679 91.1406 376.507 92.6439 375.039 93.946C373.572 95.2244 371.808 96.2306 369.748 96.9645C367.689 97.6747 365.309 98.0298 362.61 98.0298ZM366.943 87.5895C369.168 87.5895 371.133 87.1515 372.838 86.2756C374.542 85.3759 375.88 84.1686 376.85 82.6534C377.821 81.1383 378.306 79.4219 378.306 77.5043V71.7159C377.833 72.0237 377.182 72.3078 376.353 72.5682C375.548 72.8049 374.637 73.0298 373.619 73.2429C372.601 73.4323 371.583 73.6098 370.565 73.7756C369.547 73.9176 368.624 74.0478 367.795 74.1662C366.02 74.4266 364.469 74.8409 363.143 75.4091C361.817 75.9773 360.788 76.7467 360.054 77.7173C359.32 78.6643 358.953 79.848 358.953 81.2685C358.953 83.3281 359.699 84.9025 361.19 85.9915C362.705 87.0568 364.623 87.5895 366.943 87.5895ZM429.709 98.0653C424.122 98.0653 419.316 96.8816 415.292 94.5142C411.291 92.1231 408.213 88.8087 406.059 84.571C403.928 80.3333 402.863 75.4564 402.863 69.9403C402.863 64.3532 403.94 59.4527 406.094 55.2386C408.272 51.0009 411.362 47.6984 415.363 45.331C419.364 42.9399 424.122 41.7443 429.638 41.7443C434.397 41.7443 438.563 42.6084 442.138 44.3366C445.713 46.0649 448.542 48.4915 450.625 51.6165C452.709 54.7415 453.857 58.411 454.07 62.625H439.794C439.392 59.9025 438.327 57.7126 436.598 56.0554C434.894 54.3745 432.657 53.5341 429.887 53.5341C427.543 53.5341 425.495 54.1733 423.743 55.4517C422.015 56.7064 420.666 58.5412 419.695 60.956C418.724 63.3707 418.239 66.2945 418.239 69.7273C418.239 73.2074 418.712 76.1667 419.659 78.6051C420.63 81.0436 421.991 82.902 423.743 84.1804C425.495 85.4588 427.543 86.098 429.887 86.098C431.615 86.098 433.166 85.7429 434.539 85.0327C435.935 84.3224 437.084 83.2926 437.983 81.9432C438.907 80.5701 439.51 78.9247 439.794 77.0071H454.07C453.833 81.1738 452.697 84.8433 450.661 88.0156C448.649 91.1643 445.867 93.6264 442.316 95.402C438.765 97.1776 434.562 98.0653 429.709 98.0653ZM477.463 81.304L477.499 63.1577H479.7L497.172 42.4545H514.537L491.064 69.8693H487.477L477.463 81.304ZM463.756 97V24.2727H478.884V97H463.756ZM497.847 97L481.795 73.2429L491.881 62.554L515.567 97H497.847Z" fill="#0A0A0A"/>
<path d="M1.05682 142V133.273H6.32386V134.21H2.11364V137.159H6.05114V138.097H2.11364V141.062H6.39205V142H1.05682ZM13.0014 135.455C12.9503 135.023 12.7429 134.688 12.3793 134.449C12.0156 134.21 11.5696 134.091 11.0412 134.091C10.6548 134.091 10.3168 134.153 10.027 134.278C9.74006 134.403 9.51563 134.575 9.35369 134.794C9.1946 135.013 9.11506 135.261 9.11506 135.54C9.11506 135.773 9.17045 135.973 9.28125 136.141C9.39489 136.305 9.53977 136.443 9.71591 136.554C9.89205 136.662 10.0767 136.751 10.2699 136.822C10.4631 136.891 10.6406 136.946 10.8026 136.989L11.6889 137.227C11.9162 137.287 12.169 137.369 12.4474 137.474C12.7287 137.58 12.9972 137.723 13.2528 137.905C13.5114 138.084 13.7244 138.314 13.892 138.595C14.0597 138.876 14.1435 139.222 14.1435 139.631C14.1435 140.102 14.0199 140.528 13.7727 140.909C13.5284 141.29 13.1705 141.592 12.6989 141.817C12.2301 142.041 11.6605 142.153 10.9901 142.153C10.3651 142.153 9.82386 142.053 9.36648 141.851C8.91193 141.649 8.55398 141.368 8.29261 141.007C8.03409 140.646 7.88778 140.227 7.85369 139.75H8.9446C8.97301 140.08 9.08381 140.352 9.27699 140.568C9.47301 140.781 9.72017 140.94 10.0185 141.045C10.3196 141.148 10.6435 141.199 10.9901 141.199C11.3935 141.199 11.7557 141.134 12.0767 141.003C12.3977 140.869 12.652 140.685 12.8395 140.449C13.027 140.21 13.1207 139.932 13.1207 139.614C13.1207 139.324 13.0398 139.088 12.8778 138.906C12.7159 138.724 12.5028 138.577 12.2386 138.463C11.9744 138.349 11.6889 138.25 11.3821 138.165L10.3082 137.858C9.62642 137.662 9.08665 137.382 8.68892 137.018C8.29119 136.655 8.09233 136.179 8.09233 135.591C8.09233 135.102 8.22443 134.676 8.48864 134.312C8.75568 133.946 9.11364 133.662 9.5625 133.46C10.0142 133.256 10.5185 133.153 11.0753 133.153C11.6378 133.153 12.1378 133.254 12.5753 133.456C13.0128 133.655 13.3594 133.928 13.6151 134.274C13.8736 134.621 14.0099 135.014 14.0241 135.455H13.0014ZM15.4038 134.21V133.273H21.9492V134.21H19.2049V142H18.1481V134.21H15.4038ZM29.3075 133.273H30.3643V139.051C30.3643 139.648 30.2237 140.18 29.9425 140.649C29.6641 141.115 29.2706 141.483 28.7621 141.753C28.2536 142.02 27.657 142.153 26.9723 142.153C26.2876 142.153 25.6911 142.02 25.1825 141.753C24.674 141.483 24.2791 141.115 23.9979 140.649C23.7195 140.18 23.5803 139.648 23.5803 139.051V133.273H24.6371V138.966C24.6371 139.392 24.7308 139.771 24.9183 140.104C25.1058 140.433 25.3729 140.693 25.7195 140.884C26.0689 141.071 26.4865 141.165 26.9723 141.165C27.4581 141.165 27.8757 141.071 28.2251 140.884C28.5746 140.693 28.8416 140.433 29.0263 140.104C29.2138 139.771 29.3075 139.392 29.3075 138.966V133.273ZM35.168 142H32.4748V133.273H35.2873C36.1339 133.273 36.8583 133.447 37.4606 133.797C38.0629 134.143 38.5245 134.642 38.8455 135.293C39.1665 135.94 39.3271 136.716 39.3271 137.619C39.3271 138.528 39.1651 139.311 38.8413 139.967C38.5174 140.621 38.0458 141.124 37.4265 141.476C36.8072 141.825 36.0543 142 35.168 142ZM33.5316 141.062H35.0998C35.8214 141.062 36.4194 140.923 36.8938 140.645C37.3683 140.366 37.7219 139.97 37.9549 139.456C38.1879 138.942 38.3043 138.33 38.3043 137.619C38.3043 136.915 38.1893 136.308 37.9592 135.8C37.729 135.288 37.3853 134.896 36.9279 134.624C36.4705 134.348 35.9009 134.21 35.2191 134.21H33.5316V141.062ZM42.1566 133.273V142H41.0998V133.273H42.1566ZM51.6392 137.636C51.6392 138.557 51.473 139.352 51.1406 140.023C50.8082 140.693 50.3523 141.21 49.7727 141.574C49.1932 141.938 48.5313 142.119 47.7869 142.119C47.0426 142.119 46.3807 141.938 45.8011 141.574C45.2216 141.21 44.7656 140.693 44.4332 140.023C44.1009 139.352 43.9347 138.557 43.9347 137.636C43.9347 136.716 44.1009 135.92 44.4332 135.25C44.7656 134.58 45.2216 134.062 45.8011 133.699C46.3807 133.335 47.0426 133.153 47.7869 133.153C48.5313 133.153 49.1932 133.335 49.7727 133.699C50.3523 134.062 50.8082 134.58 51.1406 135.25C51.473 135.92 51.6392 136.716 51.6392 137.636ZM50.6165 137.636C50.6165 136.881 50.4901 136.243 50.2372 135.723C49.9872 135.203 49.6477 134.81 49.2188 134.543C48.7926 134.276 48.3153 134.142 47.7869 134.142C47.2585 134.142 46.7798 134.276 46.3509 134.543C45.9247 134.81 45.5852 135.203 45.3324 135.723C45.0824 136.243 44.9574 136.881 44.9574 137.636C44.9574 138.392 45.0824 139.03 45.3324 139.55C45.5852 140.07 45.9247 140.463 46.3509 140.73C46.7798 140.997 47.2585 141.131 47.7869 141.131C48.3153 141.131 48.7926 140.997 49.2188 140.73C49.6477 140.463 49.9872 140.07 50.2372 139.55C50.4901 139.03 50.6165 138.392 50.6165 137.636ZM59.4844 142H56.7912V133.273H59.6037C60.4503 133.273 61.1747 133.447 61.777 133.797C62.3793 134.143 62.8409 134.642 63.1619 135.293C63.483 135.94 63.6435 136.716 63.6435 137.619C63.6435 138.528 63.4815 139.311 63.1577 139.967C62.8338 140.621 62.3622 141.124 61.7429 141.476C61.1236 141.825 60.3707 142 59.4844 142ZM57.848 141.062H59.4162C60.1378 141.062 60.7358 140.923 61.2102 140.645C61.6847 140.366 62.0384 139.97 62.2713 139.456C62.5043 138.942 62.6207 138.33 62.6207 137.619C62.6207 136.915 62.5057 136.308 62.2756 135.8C62.0455 135.288 61.7017 134.896 61.2443 134.624C60.7869 134.348 60.2173 134.21 59.5355 134.21H57.848V141.062ZM66.473 133.273V142H65.4162V133.273H66.473ZM74.5579 136C74.4641 135.713 74.3406 135.456 74.1871 135.229C74.0366 134.999 73.8562 134.803 73.646 134.641C73.4386 134.479 73.2028 134.355 72.9386 134.27C72.6744 134.185 72.3846 134.142 72.0692 134.142C71.5522 134.142 71.082 134.276 70.6587 134.543C70.2354 134.81 69.8988 135.203 69.6488 135.723C69.3988 136.243 69.2738 136.881 69.2738 137.636C69.2738 138.392 69.4002 139.03 69.6531 139.55C69.9059 140.07 70.2482 140.463 70.68 140.73C71.1119 140.997 71.5977 141.131 72.1374 141.131C72.6374 141.131 73.0778 141.024 73.4585 140.811C73.842 140.595 74.1403 140.291 74.3533 139.899C74.5692 139.504 74.6772 139.04 74.6772 138.506L75.0011 138.574H72.3761V137.636H75.6999V138.574C75.6999 139.293 75.5465 139.918 75.2397 140.449C74.9357 140.98 74.5153 141.392 73.9783 141.685C73.4442 141.974 72.8306 142.119 72.1374 142.119C71.3647 142.119 70.6857 141.938 70.1005 141.574C69.5181 141.21 69.0636 140.693 68.7369 140.023C68.413 139.352 68.2511 138.557 68.2511 137.636C68.2511 136.946 68.3434 136.325 68.5281 135.774C68.7156 135.22 68.9798 134.749 69.3207 134.359C69.6616 133.97 70.065 133.672 70.5309 133.464C70.9968 133.257 71.5096 133.153 72.0692 133.153C72.5295 133.153 72.9585 133.223 73.3562 133.362C73.7567 133.499 74.1133 133.693 74.4258 133.946C74.7411 134.196 75.0039 134.496 75.2141 134.845C75.4244 135.192 75.5692 135.577 75.6488 136H74.5579ZM78.5668 133.273V142H77.5099V133.273H78.5668ZM80.2085 134.21V133.273H86.7539V134.21H84.0096V142H82.9528V134.21H80.2085ZM87.7234 142H86.6154L89.82 133.273H90.9109L94.1154 142H93.0075L90.3995 134.653H90.3313L87.7234 142ZM88.1325 138.591H92.5984V139.528H88.1325V138.591ZM95.4748 142V133.273H96.5316V141.062H100.588V142H95.4748ZM106.196 138.949C105.986 138.949 105.806 138.874 105.655 138.723C105.505 138.572 105.429 138.392 105.429 138.182C105.429 137.972 105.505 137.791 105.655 137.641C105.806 137.49 105.986 137.415 106.196 137.415C106.407 137.415 106.587 137.49 106.738 137.641C106.888 137.791 106.963 137.972 106.963 138.182C106.963 138.321 106.928 138.449 106.857 138.565C106.789 138.682 106.696 138.776 106.58 138.847C106.466 138.915 106.338 138.949 106.196 138.949ZM119.302 136H118.245C118.183 135.696 118.074 135.429 117.917 135.199C117.764 134.969 117.576 134.776 117.355 134.619C117.136 134.46 116.893 134.341 116.626 134.261C116.359 134.182 116.081 134.142 115.791 134.142C115.262 134.142 114.784 134.276 114.355 134.543C113.929 134.81 113.589 135.203 113.336 135.723C113.086 136.243 112.961 136.881 112.961 137.636C112.961 138.392 113.086 139.03 113.336 139.55C113.589 140.07 113.929 140.463 114.355 140.73C114.784 140.997 115.262 141.131 115.791 141.131C116.081 141.131 116.359 141.091 116.626 141.011C116.893 140.932 117.136 140.814 117.355 140.658C117.576 140.499 117.764 140.304 117.917 140.074C118.074 139.841 118.183 139.574 118.245 139.273H119.302C119.223 139.719 119.078 140.118 118.868 140.47C118.657 140.822 118.396 141.122 118.083 141.369C117.771 141.614 117.42 141.8 117.031 141.928C116.645 142.055 116.231 142.119 115.791 142.119C115.047 142.119 114.385 141.938 113.805 141.574C113.225 141.21 112.77 140.693 112.437 140.023C112.105 139.352 111.939 138.557 111.939 137.636C111.939 136.716 112.105 135.92 112.437 135.25C112.77 134.58 113.225 134.062 113.805 133.699C114.385 133.335 115.047 133.153 115.791 133.153C116.231 133.153 116.645 133.217 117.031 133.345C117.42 133.473 117.771 133.661 118.083 133.908C118.396 134.152 118.657 134.45 118.868 134.803C119.078 135.152 119.223 135.551 119.302 136ZM121.01 142V133.273H122.067V137.159H126.72V133.273H127.777V142H126.72V138.097H122.067V142H121.01ZM130.95 133.273V142H129.893V133.273H130.95ZM133.069 142V133.273H134.125V141.062H138.182V142H133.069ZM139.819 142V133.273H145.086V134.21H140.875V137.159H144.813V138.097H140.875V141.062H145.154V142H139.819Z" fill="#AAAAAA"/>
<defs>
<linearGradient id="paint0_linear_2001_13" x1="211" y1="56" x2="241" y2="86" gradientUnits="userSpaceOnUse">
<stop stop-color="#FF2D6B"/>
<stop offset="0.5" stop-color="#FF6B2C"/>
<stop offset="1" stop-color="#FFAA2C"/>
</linearGradient>
</defs>
</svg>
