<svg width="516" height="145" viewBox="0 0 516 145" fill="none" xmlns="http://www.w3.org/2000/svg">
<path d="M5.75281 97V87.9801L32.4574 54.919V54.5284H6.67611V42.4545H50.6747V52.2912L25.6037 84.5355V84.9261H51.598V97H5.75281ZM72.5053 117.455C70.5877 117.455 68.7885 117.301 67.1076 116.993C65.4504 116.709 64.0773 116.342 62.9883 115.892L66.3974 104.599C68.1729 105.144 69.771 105.44 71.1914 105.487C72.6355 105.535 73.8784 105.203 74.9201 104.493C75.9854 103.783 76.8496 102.575 77.5124 100.871L78.4002 98.5625L58.8335 42.4545H74.7425L86.0352 82.5114H86.6033L98.0025 42.4545H114.018L92.8178 102.895C91.7998 105.83 90.4149 108.387 88.663 110.565C86.9348 112.767 84.7449 114.46 82.0934 115.643C79.4419 116.851 76.2459 117.455 72.5053 117.455ZM136.887 24.2727V97H121.76V24.2727H136.887ZM173.651 98.0653C168.134 98.0653 163.364 96.8935 159.339 94.5497C155.339 92.1823 152.249 88.8916 150.071 84.6776C147.893 80.4399 146.804 75.5275 146.804 69.9403C146.804 64.3059 147.893 59.3816 150.071 55.1676C152.249 50.9299 155.339 47.6392 159.339 45.2955C163.364 42.928 168.134 41.7443 173.651 41.7443C179.167 41.7443 183.925 42.928 187.926 45.2955C191.951 47.6392 195.052 50.9299 197.23 55.1676C199.408 59.3816 200.497 64.3059 200.497 69.9403C200.497 75.5275 199.408 80.4399 197.23 84.6776C195.052 88.8916 191.951 92.1823 187.926 94.5497C183.925 96.8935 179.167 98.0653 173.651 98.0653ZM173.722 86.3466C176.231 86.3466 178.326 85.6364 180.007 84.2159C181.688 82.7718 182.955 80.8068 183.807 78.321C184.683 75.8352 185.121 73.0062 185.121 69.8338C185.121 66.6615 184.683 63.8324 183.807 61.3466C182.955 58.8608 181.688 56.8958 180.007 55.4517C178.326 54.0076 176.231 53.2855 173.722 53.2855C171.188 53.2855 169.058 54.0076 167.33 55.4517C165.625 56.8958 164.335 58.8608 163.459 61.3466C162.607 63.8324 162.18 66.6615 162.18 69.8338C162.18 73.0062 162.607 75.8352 163.459 78.321C164.335 80.8068 165.625 82.7718 167.33 84.2159C169.058 85.6364 171.188 86.3466 173.722 86.3466Z" fill="#0A0A0A"/>
<path d="M226 86C234.284 86 241 79.2843 241 71C241 62.7157 234.284 56 226 56C217.716 56 211 62.7157 211 71C211 79.2843 217.716 86 226 86Z" fill="url(#paint0_linear_2004_7)"/>
<path d="M297.42 58.0085L283.571 58.8608C283.334 57.6771 282.825 56.6117 282.044 55.6648C281.263 54.6941 280.233 53.9247 278.955 53.3565C277.7 52.7647 276.196 52.4688 274.445 52.4688C272.101 52.4688 270.124 52.9659 268.514 53.9602C266.904 54.9309 266.099 56.233 266.099 57.8665C266.099 59.1686 266.62 60.2694 267.662 61.169C268.704 62.0687 270.491 62.7907 273.024 63.3352L282.896 65.3239C288.199 66.4129 292.153 68.1648 294.757 70.5795C297.361 72.9943 298.663 76.1667 298.663 80.0966C298.663 83.6714 297.61 86.8082 295.503 89.5071C293.42 92.206 290.555 94.313 286.909 95.8281C283.287 97.3196 279.108 98.0653 274.374 98.0653C267.153 98.0653 261.4 96.562 257.115 93.5554C252.854 90.5251 250.356 86.4058 249.622 81.1974L264.501 80.4162C264.951 82.6179 266.04 84.2988 267.768 85.4588C269.497 86.5952 271.71 87.1634 274.409 87.1634C277.061 87.1634 279.191 86.6544 280.801 85.6364C282.435 84.5947 283.263 83.2571 283.287 81.6236C283.263 80.2505 282.683 79.1259 281.547 78.25C280.411 77.3504 278.659 76.6638 276.291 76.1903L266.845 74.3082C261.518 73.2429 257.553 71.3963 254.949 68.7685C252.368 66.1406 251.078 62.7907 251.078 58.7188C251.078 55.215 252.025 52.1965 253.919 49.6634C255.837 47.1302 258.524 45.1771 261.98 43.804C265.46 42.4309 269.532 41.7443 274.196 41.7443C281.085 41.7443 286.507 43.2003 290.46 46.1122C294.438 49.0241 296.758 52.9896 297.42 58.0085ZM337.202 42.4545V53.8182H304.354V42.4545H337.202ZM311.811 29.3864H326.939V80.2386C326.939 81.6354 327.152 82.7244 327.578 83.5057C328.005 84.2633 328.596 84.7959 329.354 85.1037C330.135 85.4115 331.035 85.5653 332.053 85.5653C332.763 85.5653 333.473 85.5062 334.184 85.3878C334.894 85.2457 335.438 85.1392 335.817 85.0682L338.196 96.3253C337.439 96.562 336.373 96.8343 335 97.142C333.627 97.4735 331.958 97.6747 329.993 97.7457C326.347 97.8878 323.151 97.4025 320.405 96.2898C317.683 95.1771 315.564 93.4489 314.049 91.1051C312.533 88.7614 311.788 85.8021 311.811 82.2273V29.3864ZM362.61 98.0298C359.13 98.0298 356.029 97.4261 353.306 96.2188C350.584 94.9877 348.43 93.1766 346.843 90.7855C345.281 88.3707 344.5 85.3641 344.5 81.7656C344.5 78.7353 345.056 76.1903 346.169 74.1307C347.281 72.071 348.797 70.4138 350.714 69.1591C352.632 67.9044 354.81 66.9574 357.248 66.3182C359.71 65.679 362.291 65.2292 364.99 64.9688C368.162 64.6373 370.719 64.3295 372.66 64.0455C374.601 63.7377 376.01 63.2879 376.886 62.696C377.762 62.1042 378.2 61.2282 378.2 60.0682V59.8551C378.2 57.6061 377.49 55.866 376.069 54.6349C374.672 53.4039 372.684 52.7884 370.103 52.7884C367.381 52.7884 365.215 53.392 363.605 54.5994C361.995 55.7831 360.93 57.2746 360.409 59.0739L346.417 57.9375C347.127 54.6231 348.524 51.7585 350.608 49.3438C352.691 46.9053 355.378 45.035 358.669 43.733C361.983 42.4072 365.818 41.7443 370.174 41.7443C373.205 41.7443 376.105 42.0994 378.875 42.8097C381.668 43.5199 384.142 44.6207 386.297 46.1122C388.475 47.6037 390.191 49.5213 391.446 51.8651C392.7 54.1851 393.328 56.9669 393.328 60.2102V97H378.981V89.4361H378.555C377.679 91.1406 376.507 92.6439 375.039 93.946C373.572 95.2244 371.808 96.2306 369.748 96.9645C367.689 97.6747 365.309 98.0298 362.61 98.0298ZM366.943 87.5895C369.168 87.5895 371.133 87.1515 372.838 86.2756C374.542 85.3759 375.88 84.1686 376.85 82.6534C377.821 81.1383 378.306 79.4219 378.306 77.5043V71.7159C377.833 72.0237 377.182 72.3078 376.353 72.5682C375.548 72.8049 374.637 73.0298 373.619 73.2429C372.601 73.4323 371.583 73.6098 370.565 73.7756C369.547 73.9176 368.624 74.0478 367.795 74.1662C366.02 74.4266 364.469 74.8409 363.143 75.4091C361.817 75.9773 360.788 76.7467 360.054 77.7173C359.32 78.6643 358.953 79.848 358.953 81.2685C358.953 83.3281 359.699 84.9025 361.19 85.9915C362.705 87.0568 364.623 87.5895 366.943 87.5895ZM429.709 98.0653C424.122 98.0653 419.316 96.8816 415.292 94.5142C411.291 92.1231 408.213 88.8087 406.059 84.571C403.928 80.3333 402.863 75.4564 402.863 69.9403C402.863 64.3532 403.94 59.4527 406.094 55.2386C408.272 51.0009 411.362 47.6984 415.363 45.331C419.364 42.9399 424.122 41.7443 429.638 41.7443C434.397 41.7443 438.563 42.6084 442.138 44.3366C445.713 46.0649 448.542 48.4915 450.625 51.6165C452.709 54.7415 453.857 58.411 454.07 62.625H439.794C439.392 59.9025 438.327 57.7126 436.598 56.0554C434.894 54.3745 432.657 53.5341 429.887 53.5341C427.543 53.5341 425.495 54.1733 423.743 55.4517C422.015 56.7064 420.666 58.5412 419.695 60.956C418.724 63.3707 418.239 66.2945 418.239 69.7273C418.239 73.2074 418.712 76.1667 419.659 78.6051C420.63 81.0436 421.991 82.902 423.743 84.1804C425.495 85.4588 427.543 86.098 429.887 86.098C431.615 86.098 433.166 85.7429 434.539 85.0327C435.935 84.3224 437.084 83.2926 437.983 81.9432C438.907 80.5701 439.51 78.9247 439.794 77.0071H454.07C453.833 81.1738 452.697 84.8433 450.661 88.0156C448.649 91.1643 445.867 93.6264 442.316 95.402C438.765 97.1776 434.562 98.0653 429.709 98.0653ZM477.463 81.304L477.499 63.1577H479.7L497.172 42.4545H514.537L491.064 69.8693H487.477L477.463 81.304ZM463.756 97V24.2727H478.884V97H463.756ZM497.847 97L481.795 73.2429L491.881 62.554L515.567 97H497.847Z" fill="#0A0A0A"/>
<defs>
<linearGradient id="paint0_linear_2004_7" x1="211" y1="56" x2="241" y2="86" gradientUnits="userSpaceOnUse">
<stop stop-color="#FF2D6B"/>
<stop offset="0.5" stop-color="#FF6B2C"/>
<stop offset="1" stop-color="#FFAA2C"/>
</linearGradient>
</defs>
</svg>
